<svg xmlns="http://www.w3.org/2000/svg" enable-background="new 0 0 512 512" viewBox="0 0 512 512" id="facebook">
  <path d="M256,508.95c139.476,0,252.95-113.474,252.95-252.95S395.476,3.05,256,3.05S3.05,116.524,3.05,256
			S116.524,508.95,256,508.95z M256,15c132.886,0,241,108.114,241,241S388.886,497,256,497S15,388.886,15,256S123.114,15,256,15z"></path>
  <path d="M170.682,261.672h34.7v151.621c0,3.299,2.676,5.975,5.975,5.975h65.175c3.299,0,5.975-2.676,5.975-5.975V261.672h36.349
			c3.299,0,5.975-2.676,5.975-5.975v-55.333c0-3.299-2.676-5.975-5.975-5.975h-36.341v-26.624c0-3.913,0.817-9.118,7.85-9.118
			h35.027c3.299,0,5.975-2.676,5.975-5.975V98.906c0-3.291-2.661-5.96-5.952-5.975l-48.3-0.202
			c-52.89,0-71.734,37.061-71.734,71.737v29.868h-34.7c-3.299,0-5.975,2.676-5.975,5.975v55.387
			C164.707,258.995,167.383,261.672,170.682,261.672z M176.657,206.284h34.7c3.299,0,5.975-2.676,5.975-5.975v-35.843
			c0-14.028,4.31-59.787,59.76-59.787l42.324,0.179v41.838h-29.051c-9.134,0-19.801,5.516-19.801,21.069v32.599
			c0,3.299,2.676,5.975,5.975,5.975h36.341v43.382h-36.349c-3.299,0-5.975,2.676-5.975,5.975v151.621h-53.224V255.697
			c0-3.299-2.676-5.975-5.975-5.975h-34.7V206.284z"></path>
</svg>
