<svg xmlns="http://www.w3.org/2000/svg" width="32" height="32" viewBox="0 0 32 32" id="Person">
  <path fill-rule="evenodd" d="m -20,486 c -7.720126,0 -14,6.27988 -14,14 0,7.72012 6.279874,14 14,14 7.720126,0 14,-6.27988 14,-14 0,-7.72012 -6.279874,-14 -14,-14 z m 0,2 c 6.639248,0 12,5.36076 12,12 0,3.05064 -1.134374,5.82859 -3.001953,7.94336 -0.02329,-3.73555 -2.33895,-6.9409 -5.607422,-8.27734 C -15.621188,498.75098 -15,497.44441 -15,496 c 0,-2.74958 -2.250427,-5 -5,-5 -2.749573,0 -5,2.25042 -5,5 0,1.44441 0.621188,2.75098 1.609375,3.66602 -3.268472,1.33644 -5.584135,4.54179 -5.607422,8.27734 C -30.865626,505.82859 -32,503.05064 -32,500 c 0,-6.63924 5.360752,-12 12,-12 z" color="#000" style="-inkscape-stroke:none" transform="translate(36 -484)" fill="#000000" class="color000000 svgShape"></path>
</svg>
